<?xml version="1.0" encoding="utf-8" standalone="yes"?>
<!DOCTYPE svg PUBLIC "-//W3C//DTD SVG 1.1//EN" "http://www.w3.org/Graphics/SVG/1.1/DTD/svg11.dtd">
<svg style="fill:none;stroke:none;fill-rule:evenodd;clip-rule:evenodd;stroke-linecap:round;stroke-linejoin:round;stroke-miterlimit:1.5;" version="1.1" xmlns="http://www.w3.org/2000/svg" xmlns:xlink="http://www.w3.org/1999/xlink" width="576" height="592" viewBox="0 0 576 592"><style class="text-font-style fontImports" data-font-family="Shantell Sans">@import url(https://fonts.googleapis.com/css2?family=Shantell+Sans:wght@300..800&amp;amp;display=block);</style><g id="items" style="isolation: isolate"><g id="blend" style="mix-blend-mode: normal"><g id="g-root-cp_3_text-3_8zl9rygo45j-fill" data-item-order="-261872" transform="translate(50, 134)"><g id="cp_3_text-3_8zl9rygo45j-fill-merged" stroke="none" fill="#346778" fill-opacity="1"><g><path d="M10 10 H238 V154 H10 V10"></path></g></g></g><g id="g-root-cp_3_stick-3_1hitmr3ygo6bk-fill" data-item-order="-261854" transform="translate(260, 278)"><g id="cp_3_stick-3_1hitmr3ygo6bk-fill-merged" stroke="none" fill="#346778" fill-opacity="1"><g><path d="M28 10 H10 V190 H28 V10"></path></g></g></g><g id="g-root-cp_1_text-1_147zlgvygo4qp-fill" data-item-order="-261848" transform="translate(32, 278)"><g id="cp_1_text-1_147zlgvygo4qp-fill-merged" stroke="none" fill="#41735b" fill-opacity="1"><g><path d="M10 10 H238 V154 H10 V10"></path></g></g></g><g id="g-root-cp_1_stick-1_hriyjzygpiiy-fill" data-item-order="-261836" transform="translate(242, 362)"><g id="cp_1_stick-1_hriyjzygpiiy-fill-merged" stroke="none" fill="#41735b" fill-opacity="1"><g><path d="M28 10 H10 V106 H28 V10"></path></g></g></g><g id="g-root-cp_4_text-4_8y27ygpkw3-fill" data-item-order="-261818" transform="translate(278, 134)"><g id="cp_4_text-4_8y27ygpkw3-fill-merged" stroke="none" fill="#5a48a4" fill-opacity="1"><g><path d="M10 10 H238 V142 H10 V10"></path></g></g></g><g id="g-root-cp_4_stick-4_1q6cgvjygpibw-fill" data-item-order="-261800" transform="translate(278, 266)"><g id="cp_4_stick-4_1q6cgvjygpibw-fill-merged" stroke="none" fill="#5a48a4" fill-opacity="1"><g><path d="M10 10 H28 V202 H10 V10"></path></g></g></g><g id="g-root-cp_2_text-2_1cuvyi7ygpjwt-fill" data-item-order="-261794" transform="translate(296, 266)"><g id="cp_2_text-2_1cuvyi7ygpjwt-fill-merged" stroke="none" fill="#60703f" fill-opacity="1"><g><path d="M10 10 H238 V154 H10 V10"></path></g></g></g><g id="g-root-cp_2_stick-2_zk1x7zygpiby-fill" data-item-order="-261782" transform="translate(296, 350)"><g id="cp_2_stick-2_zk1x7zygpiby-fill-merged" stroke="none" fill="#60703f" fill-opacity="1"><g><path d="M10 10 H28 V118 H10 V10"></path></g></g></g><g id="g-root-cp_0_g-0_v48f3jygpj47-fill" data-item-order="-261770" transform="translate(242, 458)"><g id="cp_0_g-0_v48f3jygpj47-fill-merged" stroke="none" fill="#6b6b6b" fill-opacity="1"><g><path d="M34 61L46.009 86L58 61 H34"></path></g></g><g id="cp_0_g-0_v48f3jygpj47-fill-merged" stroke="none" fill="#6b6b6b" fill-opacity="1"><g><path d="M82 10 H10L34 61 H58.001L82 10"></path></g></g></g><g id="g-root-tx_explorin_1lwrpm7ygpkp4-fill" data-item-order="0" transform="translate(338, 194)"><g id="tx_explorin_1lwrpm7ygpkp4-fill-merged" stroke="none" fill="#f4f4f4" fill-opacity="1"><g><text style="font: 15px &quot;Shantell Sans&quot;, cursive; white-space: pre;" font-size="15px" font-family="'Shantell Sans', cursive"><tspan x="12" y="31.13" dominant-baseline="ideographic">Exploring new </tspan><tspan x="12" y="49.13" dominant-baseline="ideographic">technologies to stay </tspan><tspan x="12" y="67.13" dominant-baseline="ideographic">ahead in the field.</tspan></text></g></g></g><g id="g-root-tx_addressi_4hxvfzygpj4a-fill" data-item-order="0" transform="translate(62, 194)"><g id="tx_addressi_4hxvfzygpj4a-fill-merged" stroke="none" fill="#f4f4f4" fill-opacity="1"><g><text style="font: 15px &quot;Shantell Sans&quot;, cursive; white-space: pre;" font-size="15px" font-family="'Shantell Sans', cursive"><tspan x="43.63" y="28.13" dominant-baseline="ideographic">Addressing real-</tspan><tspan x="21.38" y="46.13" dominant-baseline="ideographic">world challenges in </tspan><tspan x="49.27" y="64.13" dominant-baseline="ideographic">web application </tspan><tspan x="68.1" y="82.13" dominant-baseline="ideographic">development.</tspan></text></g></g></g><g id="g-root-ic_phon_1uqjalrygpkw6-fill" data-item-order="0" transform="translate(212, 290)"></g><g id="g-root-tx_emerging_dhy7anygpkw7-fill" data-item-order="0" transform="translate(338, 146)"><g id="tx_emerging_dhy7anygpkw7-fill-merged" stroke="none" fill="#f4f4f4" fill-opacity="1"><g><text style="font: bold 15px &quot;Shantell Sans&quot;, cursive; white-space: pre;" font-weight="bold" font-size="15px" font-family="'Shantell Sans', cursive"><tspan x="12" y="28.13" dominant-baseline="ideographic">Emerging </tspan><tspan x="12" y="46.13" dominant-baseline="ideographic">Technologies</tspan></text></g></g></g><g id="g-root-ic_hype_vah5ynygpkp5-fill" data-item-order="0" transform="translate(290, 146)"></g><g id="g-root-ic_puzz_1cwrdrjygpix7-fill" data-item-order="0" transform="translate(230, 146)"></g><g id="g-root-ic_hand_4g2g6nygqy9w-fill" data-item-order="0" transform="translate(308, 278)"></g><g id="g-root-tx_adaptabl_18nt3lbygpi4i-fill" data-item-order="0" transform="translate(356, 278)"><g id="tx_adaptabl_18nt3lbygpi4i-fill-merged" stroke="none" fill="#f4f4f4" fill-opacity="1"><g><text style="font: bold 15px &quot;Shantell Sans&quot;, cursive; white-space: pre;" font-weight="bold" font-size="15px" font-family="'Shantell Sans', cursive"><tspan x="12" y="28.13" dominant-baseline="ideographic">Adaptable Web </tspan><tspan x="12" y="46.13" dominant-baseline="ideographic">Applications</tspan></text></g></g></g><g id="g-root-tx_designin_dgp94fygpiq5-fill" data-item-order="0" transform="translate(80, 338)"><g id="tx_designin_dgp94fygpiq5-fill-merged" stroke="none" fill="#f4f4f4" fill-opacity="1"><g><text style="font: 15px &quot;Shantell Sans&quot;, cursive; white-space: pre;" font-size="15px" font-family="'Shantell Sans', cursive"><tspan x="16.65" y="28.13" dominant-baseline="ideographic">Designing user-</tspan><tspan x="39.4" y="46.13" dominant-baseline="ideographic">friendly and </tspan><tspan x="34.15" y="64.13" dominant-baseline="ideographic">intuitive web </tspan><tspan x="37.72" y="82.13" dominant-baseline="ideographic">applications.</tspan></text></g></g></g><g id="g-root-tx_developi_vccl7zygpjpf-fill" data-item-order="0" transform="translate(356, 326)"><g id="tx_developi_vccl7zygpjpf-fill-merged" stroke="none" fill="#f4f4f4" fill-opacity="1"><g><text style="font: 15px &quot;Shantell Sans&quot;, cursive; white-space: pre;" font-size="15px" font-family="'Shantell Sans', cursive"><tspan x="12" y="28.13" dominant-baseline="ideographic">Developing </tspan><tspan x="12" y="46.13" dominant-baseline="ideographic">adaptable and </tspan><tspan x="12" y="64.13" dominant-baseline="ideographic">responsive web </tspan><tspan x="12" y="82.13" dominant-baseline="ideographic">applications.</tspan></text></g></g></g><g id="g-root-tx_practica_ddkvovygpibl-fill" data-item-order="0" transform="translate(122, 146)"><g id="tx_practica_ddkvovygpibl-fill-merged" stroke="none" fill="#f4f4f4" fill-opacity="1"><g><text style="font: bold 15px &quot;Shantell Sans&quot;, cursive; white-space: pre;" font-weight="bold" font-size="15px" font-family="'Shantell Sans', cursive"><tspan x="34.28" y="28.13" dominant-baseline="ideographic">Practical </tspan><tspan x="19.07" y="46.13" dominant-baseline="ideographic">Challenges</tspan></text></g></g></g><g id="g-root-tx_pathways_qoewz3ygpjwg-fill" data-item-order="0" transform="translate(68, 38)"><g id="tx_pathways_qoewz3ygpjwg-fill-merged" stroke="none" fill="#f4f4f4" fill-opacity="1"><g><text style="font: bold 25px &quot;Shantell Sans&quot;, cursive; white-space: pre;" font-weight="bold" font-size="25px" font-family="'Shantell Sans', cursive"><tspan x="14.38" y="40.93" dominant-baseline="ideographic">Pathways to Web Development </tspan><tspan x="148.23" y="70.93" dominant-baseline="ideographic">Excellence</tspan></text></g></g></g><g id="g-root-tx_intuitiv_142zsrzygpiq4-fill" data-item-order="0" transform="translate(80, 290)"><g id="tx_intuitiv_142zsrzygpiq4-fill-merged" stroke="none" fill="#f4f4f4" fill-opacity="1"><g><text style="font: bold 15px &quot;Shantell Sans&quot;, cursive; white-space: pre;" font-weight="bold" font-size="15px" font-family="'Shantell Sans', cursive"><tspan x="21.55" y="28.13" dominant-baseline="ideographic">Intuitive Web </tspan><tspan x="31" y="46.13" dominant-baseline="ideographic">Applications</tspan></text></g></g></g><g id="g-root-cp_3_text-3_8zl9rygo45j-stroke" data-item-order="-261872" transform="translate(50, 134)"><g id="cp_3_text-3_8zl9rygo45j-stroke" fill="none" stroke-linecap="round" stroke-linejoin="round" stroke-miterlimit="4" stroke="#2c2c2c" stroke-width="2" stroke-opacity="1"><g><path d="M 10 154L 10 10L 238 10L 238 154"></path></g></g></g><g id="g-root-cp_3_stick-3_1hitmr3ygo6bk-stroke" data-item-order="-261854" transform="translate(260, 278)"><g id="cp_3_stick-3_1hitmr3ygo6bk-stroke" fill="none" stroke-linecap="round" stroke-linejoin="round" stroke-miterlimit="4" stroke="#2c2c2c" stroke-width="2" stroke-opacity="1"><g><path d="M 27.99614 190L 27.99614 10"></path></g></g></g><g id="g-root-cp_1_text-1_147zlgvygo4qp-stroke" data-item-order="-261848" transform="translate(32, 278)"><g id="cp_1_text-1_147zlgvygo4qp-stroke" fill="none" stroke-linecap="round" stroke-linejoin="round" stroke-miterlimit="4" stroke="#2c2c2c" stroke-width="2" stroke-opacity="1"><g><path d="M 238 154L 238 10L 10 10L 10 154L 220 154"></path></g></g></g><g id="g-root-cp_1_stick-1_hriyjzygpiiy-stroke" data-item-order="-261836" transform="translate(242, 362)"><g id="cp_1_stick-1_hriyjzygpiiy-stroke" fill="none" stroke-linecap="round" stroke-linejoin="round" stroke-miterlimit="4" stroke="#2c2c2c" stroke-width="2" stroke-opacity="1"><g><path d="M 27.99625 106L 27.99625 10M 10 106L 10 70"></path></g></g></g><g id="g-root-cp_4_text-4_8y27ygpkw3-stroke" data-item-order="-261818" transform="translate(278, 134)"><g id="cp_4_text-4_8y27ygpkw3-stroke" fill="none" stroke-linecap="round" stroke-linejoin="round" stroke-miterlimit="4" stroke="#2c2c2c" stroke-width="2" stroke-opacity="1"><g><path d="M 238 142L 238 10L 10 10L 10 142"></path></g></g></g><g id="g-root-cp_4_stick-4_1q6cgvjygpibw-stroke" data-item-order="-261800" transform="translate(278, 266)"><g id="cp_4_stick-4_1q6cgvjygpibw-stroke" fill="none" stroke-linecap="round" stroke-linejoin="round" stroke-miterlimit="4" stroke="#2c2c2c" stroke-width="2" stroke-opacity="1"><g><path d="M 10.003862 202L 10.003862 10"></path></g></g></g><g id="g-root-cp_2_text-2_1cuvyi7ygpjwt-stroke" data-item-order="-261794" transform="translate(296, 266)"><g id="cp_2_text-2_1cuvyi7ygpjwt-stroke" fill="none" stroke-linecap="round" stroke-linejoin="round" stroke-miterlimit="4" stroke="#2c2c2c" stroke-width="2" stroke-opacity="1"><g><path d="M 10 154L 10 10L 238 10L 238 154L 28 154"></path></g></g></g><g id="g-root-cp_2_stick-2_zk1x7zygpiby-stroke" data-item-order="-261782" transform="translate(296, 350)"><g id="cp_2_stick-2_zk1x7zygpiby-stroke" fill="none" stroke-linecap="round" stroke-linejoin="round" stroke-miterlimit="4" stroke="#2c2c2c" stroke-width="2" stroke-opacity="1"><g><path d="M 10.00379 118L 10.00379 10M 28 118L 28 70"></path></g></g></g><g id="g-root-cp_0_g-0_v48f3jygpj47-stroke" data-item-order="-261770" transform="translate(242, 458)"><g id="cp_0_g-0_v48f3jygpj47-stroke" fill="none" stroke-linecap="round" stroke-linejoin="round" stroke-miterlimit="4" stroke="#2c2c2c" stroke-width="2" stroke-opacity="1"><g><path d="M 34 61L 46.0089 86L 58 61L 34 61Z"></path></g></g><g id="cp_0_g-0_v48f3jygpj47-stroke" fill="none" stroke-linecap="round" stroke-linejoin="round" stroke-miterlimit="4" stroke="#2c2c2c" stroke-width="2" stroke-opacity="1"><g><path d="M 82 10L 10 10L 33.9997 61L 58.0009 61L 82 10Z"></path></g></g></g><g id="g-root-tx_explorin_1lwrpm7ygpkp4-stroke" data-item-order="0" transform="translate(338, 194)"></g><g id="g-root-tx_addressi_4hxvfzygpj4a-stroke" data-item-order="0" transform="translate(62, 194)"></g><g id="g-root-ic_phon_1uqjalrygpkw6-stroke" data-item-order="0" transform="translate(212, 290)"><g id="ic_phon_1uqjalrygpkw6-stroke" fill="none" stroke-linecap="round" stroke-linejoin="round" stroke-miterlimit="4" stroke="#43dd93" stroke-width="2" stroke-opacity="1"><g><path d="M 35.5 28.75L 41.5 28.75M 25 39.25L 25 43.75C 25 44.578426 24.328428 45.25 23.5 45.25L 16 45.25C 15.171573 45.25 14.5 44.578426 14.5 43.75L 14.5 31.75C 14.5 30.921572 15.171573 30.25 16 30.25L 18.25 30.25M 14.5 42.25L 25 42.25M 22 27.25L 22 13C 22 11.75736 23.007359 10.75 24.25 10.75L 39.25 10.75C 40.492641 10.75 41.5 11.75736 41.5 13L 41.5 31C 41.5 32.242641 40.492641 33.25 39.25 33.25L 29.5 33.25M 31 25.75L 20.5 36.25M 26.5 25.75L 31 25.75L 31 30.25M 20.5 31.75L 20.5 36.25L 25 36.25"></path></g></g></g><g id="g-root-tx_emerging_dhy7anygpkw7-stroke" data-item-order="0" transform="translate(338, 146)"></g><g id="g-root-ic_hype_vah5ynygpkp5-stroke" data-item-order="0" transform="translate(290, 146)"><g id="ic_hype_vah5ynygpkp5-stroke" fill="none" stroke-linecap="round" stroke-linejoin="round" stroke-miterlimit="4" stroke="#8769fd" stroke-width="2" stroke-opacity="1"><g><path d="M 22.524971 18.1C 21.32497 15.85 19.674969 14.5 17.874969 14.5C 14.124969 14.5 11.124964 20.5 11.124964 28C 11.124964 35.5 14.124969 41.5 17.874969 41.5C 18.924969 41.5 19.97497 41.050003 20.874969 40.150002M 23.875 36.25L 41.724998 36.25C 43.525002 36.25 44.875 34.75 44.875 33.099998C 44.875 31.900002 44.275002 30.849998 43.224998 30.25L 37.375 26.950001C 32.424999 24.099998 26.724998 22.75 21.025 22.75L 19.075001 22.75M 20.875015 29.349998C 21.040705 29.349998 21.175014 29.21575 21.175014 29.049999C 21.175014 28.884251 21.040705 28.75 20.875015 28.75M 20.874985 29.349998C 20.709295 29.349998 20.574986 29.21575 20.574986 29.049999C 20.574986 28.884251 20.709295 28.75 20.874985 28.75M 19.074986 36.25L 16.074986 36.25M 14.875 27.25L 11.136718 27.25M 16.074986 31.75L 11.394532 31.75M 14.574985 22.75L 11.65234 22.75M 24.324986 22.899971C 24.474985 26.950001 28.375 30.25 33.325001 30.25L 43.256351 30.25"></path></g></g></g><g id="g-root-ic_puzz_1cwrdrjygpix7-stroke" data-item-order="0" transform="translate(230, 146)"><g id="ic_puzz_1cwrdrjygpix7-stroke" fill="none" stroke-linecap="round" stroke-linejoin="round" stroke-miterlimit="4" stroke="#1ac3fb" stroke-width="2" stroke-opacity="1"><g><path d="M 11.5 31.75L 16 31.75C 16 31.75 16.75 31.75 16.75 32.5L 16.75 43C 16.75 43 16.75 43.75 16 43.75L 11.5 43.75C 11.5 43.75 10.75 43.75 10.75 43L 10.75 32.5C 10.75 32.5 10.75 31.75 11.5 31.75M 16.75 41.594498C 32.5 46.844498 27.25 46.844498 45.25 37.844498C 44.214046 36.448822 42.416168 35.849529 40.75 36.344498L 34.274502 38.395M 16.75 33.25L 21.25 33.25C 24.779499 33.25 27.25 36.25 28 36.25L 33.25 36.25C 34.75 36.25 34.75 39.25 33.25 39.25L 25 39.25M 36.356499 27.099998C 35.184689 25.92819 35.184689 24.028311 36.356503 22.856501C 37.528313 21.68469 39.428192 21.68469 40.599998 22.856501C 40.893112 23.147301 41.122036 23.496302 41.271999 23.881001C 41.364189 24.117104 41.569397 24.290672 41.81752 24.342415C 42.065651 24.394159 42.323124 24.317078 42.501999 24.137501L 44.843498 21.796C 45.429073 21.210251 45.429073 20.26075 44.843498 19.674999L 42.443501 17.275C 43.847496 16.894894 44.77655 15.562393 44.647739 14.11357C 44.518929 12.664746 43.369362 11.517053 41.92033 11.390604C 40.471298 11.264155 39.140312 12.195387 38.762497 13.6L 36.362503 11.2C 35.776749 10.614427 34.827251 10.614427 34.241501 11.2L 32.066502 13.3735C 31.907087 13.532788 31.827747 13.755316 31.850431 13.979527C 31.873114 14.203739 31.995415 14.405867 32.183498 14.53C 33.19717 15.201852 33.704964 16.419191 33.469196 17.612223C 33.233429 18.805256 32.300755 19.73793 31.107723 19.973698C 29.914692 20.209463 28.697351 19.70167 28.025501 18.688C 27.901367 18.499914 27.69924 18.377615 27.475029 18.354931C 27.250816 18.332249 27.028288 18.411587 26.868999 18.571001L 24.689501 20.7355C 24.103928 21.321249 24.103928 22.27075 24.689501 22.856501L 33.174999 31.341999C 33.76075 31.927572 34.710251 31.927572 35.296001 31.341999L 37.637497 28.999001C 37.816376 28.820097 37.893005 28.563068 37.841297 28.31542C 37.789589 28.067774 37.61652 27.862881 37.381001 27.7705C 36.996616 27.620623 36.647694 27.392265 36.356499 27.099998Z"></path></g></g></g><g id="g-root-ic_hand_4g2g6nygqy9w-stroke" data-item-order="0" transform="translate(308, 278)"><g id="ic_hand_4g2g6nygqy9w-stroke" fill="none" stroke-linecap="round" stroke-linejoin="round" stroke-miterlimit="4" stroke="#a6da37" stroke-width="2" stroke-opacity="1"><g><path d="M 43 45.25L 43.75 40.75C 43.835957 40.105793 43.470448 39.486282 42.864998 39.25L 36.235001 36.34L 36.235001 29.875C 36.298439 29.167847 35.957016 28.485518 35.353004 28.112343C 34.748993 27.73917 33.986008 27.73917 33.381996 28.112343C 32.777985 28.485518 32.436562 29.167847 32.5 29.875L 32.5 41.785L 29.92 38.695C 29.608208 38.319656 29.133324 38.119427 28.646914 38.158218C 28.160503 38.197014 27.723358 38.469978 27.474998 38.889999C 27.186981 39.348522 27.186981 39.93148 27.474998 40.389999L 30.174999 45.310001M 16.75 36.25L 13 36.25C 11.75736 36.25 10.75 35.242641 10.75 34L 10.75 13C 10.75 11.75736 11.75736 10.75 13 10.75L 26.5 10.75C 27.742641 10.75 28.75 11.75736 28.75 13L 28.75 19.75M 10.75 31.75L 16.75 31.75M 24.25 24.25L 24.25 37M 33.25 10.75L 37.75 10.75C 37.75 10.75 39.25 10.75 39.25 12.25L 39.25 22.75C 39.25 22.75 39.25 24.25 37.75 24.25L 33.25 24.25C 33.25 24.25 31.75 24.25 31.75 22.75L 31.75 12.25C 31.75 12.25 31.75 10.75 33.25 10.75M 31.75 21.25L 39.25 21.25M 10.75 15.25L 28.75 15.25M 40.75 28L 40.75 34.75M 42.25 24.25L 43 24.25C 44.242641 24.25 45.25 25.25736 45.25 26.5L 45.25 36.25M 28.75 24.25L 22 24.25C 20.75736 24.25 19.75 25.25736 19.75 26.5L 19.75 38.5C 19.75 39.742641 20.75736 40.75 22 40.75L 24.25 40.75"></path></g></g></g><g id="g-root-tx_adaptabl_18nt3lbygpi4i-stroke" data-item-order="0" transform="translate(356, 278)"></g><g id="g-root-tx_designin_dgp94fygpiq5-stroke" data-item-order="0" transform="translate(80, 338)"></g><g id="g-root-tx_developi_vccl7zygpjpf-stroke" data-item-order="0" transform="translate(356, 326)"></g><g id="g-root-tx_practica_ddkvovygpibl-stroke" data-item-order="0" transform="translate(122, 146)"></g><g id="g-root-tx_pathways_qoewz3ygpjwg-stroke" data-item-order="0" transform="translate(68, 38)"></g><g id="g-root-tx_intuitiv_142zsrzygpiq4-stroke" data-item-order="0" transform="translate(80, 290)"></g></g></g><path id="w1uo20drzazj0r" d="M65.283 12.757a.35.35 0 0 0 .584.157l5.203-5.141-6.183 3.523.396 1.461zm-2.216-11.7a.35.35 0 0 0-.522.305v3.111l3.276-1.868-2.754-1.548zm3.728 2.105l-4.25 2.421v2.445l6.391-3.644-2.141-1.222zm4.708 3.303a.35.35 0 0 0 0-.609l-1.592-.9-7.365 4.199v1.782a.35.35 0 0 0 .523.305l8.435-4.777z M44.542 2.513c0-.433.355-.783.792-.783s.792.35.792.783-.355.783-.792.783-.792-.35-.792-.783zm59.171 0c0-.433.355-.783.792-.783s.792.35.792.783-.355.783-.792.783-.792-.35-.792-.783zm-85.951 7.636h-1.27v-.487c-.276.201-.864.609-1.881.609-1.202 0-2.274-.794-2.137-2.078.118-1.106 1.153-1.584 1.848-1.727l2.17-.345c0-.539-.29-.956-1.064-1.006s-1.21.305-1.571 1.017l-1.124-.605c1.218-2.631 5.029-1.764 5.029.414v4.207zm-1.27-2.86c.006.396-.062 1.112-.819 1.59-.587.37-1.841.299-1.903-.395-.049-.555.461-.791.906-.898l1.816-.297zm72.662 2.86h-1.27v-.487c-.276.201-.864.609-1.881.609-1.202 0-2.274-.794-2.137-2.078.118-1.106 1.153-1.584 1.848-1.727l2.17-.345c0-.539-.29-.956-1.064-1.006s-1.21.305-1.571 1.017l-1.124-.605c1.218-2.631 5.029-1.764 5.029.414v4.207zm-1.27-2.86c.006.396-.062 1.112-.82 1.59-.587.37-1.841.299-1.903-.395-.049-.555.461-.791.906-.898l1.816-.297zM99.096 10.149H97.85v-8.45h1.246v4.895l2.68-2.559h1.738l-2.633 2.535 2.715 3.578h-1.556l-2.077-2.707-.867.844v1.863zm6.053-6.114h-1.255v6.113h1.255V4.035zm-59.2 0h-1.255v6.113h1.255V4.035zm5.584 6.113V1.697h1.255v2.695c.361-.346 1-.485 1.47-.485 1.452 0 2.477 1.082 2.457 2.448v3.792h-1.27v-3.68c0-.408-.214-1.339-1.315-1.339-.968 0-1.342.756-1.342 1.339v3.681h-1.255zm-4.76-4.894V4.039h.621a.45.45 0 0 0 .45-.45v-.855h1.251v1.305h1.309v1.215h-1.309v3.109c0 .293.105.664.648.664.365 0 .531-.035.736-.07v1.137s-.361.113-.857.113c-1.398 0-1.777-1.051-1.777-1.788V5.254h-1.071zM36.528 4.039h-1.394l2.191 6.106h1.125l1.234-3.918 1.238 3.918h1.129l2.188-6.106h-1.383l-1.359 3.93-1.256-3.93h-1.124l-1.242 3.957-1.348-3.957zM26.212 7.141c-.02 1.566 1.187 3.129 3.223 3.129 1.566 0 2.383-.918 2.734-1.719L31.172 8c-.315.399-.801 1.094-1.738 1.094-1.145 0-1.825-.781-1.891-1.52h4.625c.074-.284.148-.995-.03-1.559-.336-1.064-1.221-2.102-2.839-2.102s-3.088 1.152-3.088 3.227zm1.363-.75h3.348c-.055-.43-.566-1.301-1.623-1.301a1.79 1.79 0 0 0-1.725 1.301zm-8.758.75c.038 1.758 1.277 3.133 3.145 3.133 1.074 0 1.723-.477 1.961-.672v.547h1.242V1.703h-1.258v2.888c-.414-.36-1.062-.68-1.93-.68-1.91 0-3.198 1.473-3.16 3.23zm1.309-.08c0 1.119.723 1.978 1.836 1.978a1.88 1.88 0 0 0 1.94-1.904c0-1.371-1.011-1.99-1.972-1.99s-1.805.798-1.805 1.916zm76.683-.028C96.771 5.275 95.532 3.9 93.664 3.9c-1.074 0-1.723.477-1.961.672v-.547h-1.242v8.22h1.258V9.583c.414.36 1.063.68 1.93.68 1.91 0 3.198-1.473 3.16-3.23zm-1.309.08c0-1.119-.723-1.978-1.836-1.978a1.88 1.88 0 0 0-1.94 1.904c0 1.371 1.011 1.99 1.972 1.99S95.5 8.231 95.5 7.113zM106.441 10.173V4.036h1.254v.382c.361-.346 1-.485 1.47-.485 1.452 0 2.477 1.082 2.457 2.448v3.792h-1.27V6.492c0-.408-.214-1.339-1.315-1.339-.969 0-1.342.756-1.342 1.339v3.681h-1.254zm-30.383-.021V1.824h1.084l4.215 5.777V1.824h1.32v8.328h-1.094l-4.207-5.796v5.796h-1.319zM5.24 10.149H4V2.377h1.014l2.664 3.597 2.654-3.592h1.03v7.766h-1.256V4.762L7.678 8.068 5.24 4.742v5.407z" transform="translate(440, 558)" fill="#ababab88" stroke="none"></path></svg>