<?xml version="1.0" encoding="utf-8" standalone="yes"?>
<!DOCTYPE svg PUBLIC "-//W3C//DTD SVG 1.1//EN" "http://www.w3.org/Graphics/SVG/1.1/DTD/svg11.dtd">
<svg style="fill:none;stroke:none;fill-rule:evenodd;clip-rule:evenodd;stroke-linecap:round;stroke-linejoin:round;stroke-miterlimit:1.5;" version="1.1" xmlns="http://www.w3.org/2000/svg" xmlns:xlink="http://www.w3.org/1999/xlink" width="560" height="578" viewBox="0 0 560 578"><style class="text-font-style fontImports" data-font-family="Shantell Sans">@import url(https://fonts.googleapis.com/css2?family=Shantell+Sans:wght@300..800&amp;amp;display=block);</style><g id="items" style="isolation: isolate"><g id="blend" style="mix-blend-mode: normal"><g id="g-root-sy_-1_cu_qvwvf3wsjk7e-fill" data-item-order="-126416" transform="translate(129.09921264648438, 146.23049926757812)"></g><g id="g-root-sy_0_cu_Vector_959c0fwsjjer-fill" data-item-order="-126413" transform="translate(236.442138671875, 254.57598876953125)"><g id="sy_0_cu_Vector_959c0fwsjjer-fill-merged" stroke="none" fill="#6b6b6b" fill-opacity="1"><g><path d="M58.154 10C31.559 10 10 31.559 10 58.154C10 84.748 31.559 106.307 58.154 106.307C84.748 106.307 106.307 84.748 106.307 58.154C106.307 31.559 84.748 10 58.154 10"></path></g></g></g><g id="g-root-sy_7_cu_Vector_1uuwvm7wsjksk-fill" data-item-order="-126409" transform="translate(194.3072509765625, 140.21121215820312)"><g id="sy_7_cu_Vector_1uuwvm7wsjksk-fill-merged" stroke="none" fill="#914673" fill-opacity="1"><g><path d="M56.315 43.288C51.228 55.57 37.147 61.402 24.865 56.315C12.584 51.228 6.751 37.147 11.839 24.865C16.926 12.584 31.006 6.751 43.288 11.839C55.57 16.926 61.402 31.006 56.315 43.288"></path></g></g></g><g id="g-root-sy_6_cu_Vector_1lpwr2nwskwzx-fill" data-item-order="-126405" transform="translate(110.03839111328125, 242.53759765625)"><g id="sy_6_cu_Vector_1lpwr2nwskwzx-fill-merged" stroke="none" fill="#954643" fill-opacity="1"><g><path d="M56.315 24.865C61.402 37.147 55.57 51.228 43.288 56.315C31.006 61.402 16.926 55.57 11.839 43.288C6.751 31.006 12.584 16.926 24.865 11.839C37.147 6.751 51.228 12.584 56.315 24.865"></path></g></g></g><g id="g-root-sy_5_cu_Vector_1ha38y7wskxs6-fill" data-item-order="-126401" transform="translate(140.13436889648438, 374.9599914550781)"><g id="sy_5_cu_Vector_1ha38y7wskxs6-fill-merged" stroke="none" fill="#815d3b" fill-opacity="1"><g><path d="M24.865 56.315C12.584 51.228 6.751 37.147 11.839 24.865C16.926 12.584 31.006 6.751 43.288 11.839C55.57 16.926 61.402 31.006 56.315 43.288C51.228 55.57 37.147 61.402 24.865 56.315"></path></g></g></g><g id="g-root-sy_4_cu_Vector_18eg8pbwskykv-fill" data-item-order="-126397" transform="translate(260.5184326171875, 435.1520080566406)"><g id="sy_4_cu_Vector_18eg8pbwskykv-fill-merged" stroke="none" fill="#776f30" fill-opacity="1"><g><path d="M43.288 56.315C31.006 61.402 16.926 55.57 11.839 43.288C6.751 31.006 12.584 16.926 24.865 11.839C37.147 6.751 51.228 12.584 56.315 24.865C61.402 37.147 55.57 51.228 43.288 56.315"></path></g></g></g><g id="g-root-sy_3_cu_Vector_13ymqkvwskzd4-fill" data-item-order="-126393" transform="translate(380.90240478515625, 374.9599914550781)"><g id="sy_3_cu_Vector_13ymqkvwskzd4-fill-merged" stroke="none" fill="#60703f" fill-opacity="1"><g><path d="M56.315 43.288C51.228 55.57 37.147 61.402 24.865 56.315C12.584 51.228 6.751 37.147 11.839 24.865C16.926 12.584 31.006 6.751 43.288 11.839C55.57 16.926 61.402 31.006 56.315 43.288"></path></g></g></g><g id="g-root-sy_2_cu_Vector_zjfpjjwskwzl-fill" data-item-order="-126389" transform="translate(417.01763916015625, 242.53759765625)"><g id="sy_2_cu_Vector_zjfpjjwskwzl-fill-merged" stroke="none" fill="#41735b" fill-opacity="1"><g><path d="M56.315 24.865C61.402 37.147 55.57 51.228 43.288 56.315C31.006 61.402 16.926 55.57 11.839 43.288C6.751 31.006 12.584 16.926 24.865 11.839C37.147 6.751 51.228 12.584 56.315 24.865"></path></g></g></g><g id="g-root-sy_1_cu_Vector_qnspanwskxsa-fill" data-item-order="-126385" transform="translate(326.7296142578125, 140.21121215820312)"><g id="sy_1_cu_Vector_qnspanwskxsa-fill-merged" stroke="none" fill="#346778" fill-opacity="1"><g><path d="M24.865 56.315C12.584 51.228 6.751 37.147 11.839 24.865C16.926 12.584 31.006 6.751 43.288 11.839C55.57 16.926 61.402 31.006 56.315 43.288C51.228 55.57 37.147 61.402 24.865 56.315"></path></g></g></g><g id="g-root-tx_c_18kozkfwsmebl-fill" data-item-order="0" transform="translate(386.92156982421875, 152.32638549804688)"><g id="tx_c_18kozkfwsmebl-fill-merged" stroke="none" fill="#f4f4f4" fill-opacity="1"><g><text style="font: 20px &quot;Shantell Sans&quot;, cursive; white-space: pre;" font-size="20px" font-family="'Shantell Sans', cursive"><tspan x="12" y="35.6" dominant-baseline="ideographic">C</tspan></text></g></g></g><g id="g-root-tx_reactjs_141r40fwsmdxg-fill" data-item-order="0" transform="translate(14, 254.61441040039062)"><g id="tx_reactjs_141r40fwsmdxg-fill-merged" stroke="none" fill="#f4f4f4" fill-opacity="1"><g><text style="font: 20px &quot;Shantell Sans&quot;, cursive; white-space: pre;" font-size="20px" font-family="'Shantell Sans', cursive"><tspan x="18.19" y="35.6" dominant-baseline="ideographic">React.js</tspan></text></g></g></g><g id="g-root-ic_nati_de7m6nwskydg-fill" data-item-order="0" transform="translate(122.11520385742188, 254.61441040039062)"></g><g id="g-root-ic_c_18eg8pbwsmcqp-fill" data-item-order="0" transform="translate(338.806396484375, 152.28799438476562)"></g><g id="g-root-ic_1_1hi7f2nwskydc-fill" data-item-order="0" transform="translate(429.0943603515625, 254.61441040039062)"></g><g id="g-root-tx_c_1qbz027wsmbyg-fill" data-item-order="0" transform="translate(477.20953369140625, 254.61441040039062)"><g id="tx_c_1qbz027wsmbyg-fill-merged" stroke="none" fill="#f4f4f4" fill-opacity="1"><g><text style="font: 20px &quot;Shantell Sans&quot;, cursive; white-space: pre;" font-size="20px" font-family="'Shantell Sans', cursive"><tspan x="12" y="35.6" dominant-baseline="ideographic">C++</tspan></text></g></g></g><g id="g-root-ic_type_1q6z7dbwsmcjm-fill" data-item-order="0" transform="translate(260.59515380859375, 278.7295837402344)"></g><g id="g-root-ic_1_m7z767wskykj-fill" data-item-order="0" transform="translate(206.38397216796875, 152.28799438476562)"></g><g id="g-root-tx_nodejs_1lt14i7wsmbkb-fill" data-item-order="0" transform="translate(98.268798828125, 152.32638549804688)"><g id="tx_nodejs_1lt14i7wsmbkb-fill-merged" stroke="none" fill="#f4f4f4" fill-opacity="1"><g><text style="font: 20px &quot;Shantell Sans&quot;, cursive; white-space: pre;" font-size="20px" font-family="'Shantell Sans', cursive"><tspan x="22.45" y="35.6" dominant-baseline="ideographic">Node.js</tspan></text></g></g></g><g id="g-root-tx_javascri_hva2hbwsmd59-fill" data-item-order="0" transform="translate(20.09600830078125, 387.0367736816406)"><g id="tx_javascri_hva2hbwsmd59-fill-merged" stroke="none" fill="#f4f4f4" fill-opacity="1"><g><text style="font: 20px &quot;Shantell Sans&quot;, cursive; white-space: pre;" font-size="20px" font-family="'Shantell Sans', cursive"><tspan x="15" y="35.6" dominant-baseline="ideographic">JavaScript</tspan></text></g></g></g><g id="g-root-ic_js_zmk2z3wskxe5-fill" data-item-order="0" transform="translate(152.211181640625, 387.0367736816406)"></g><g id="g-root-tx_css_1cyn2fjwsmej2-fill" data-item-order="0" transform="translate(260.59515380859375, 495.3440246582031)"><g id="tx_css_1cyn2fjwsmej2-fill-merged" stroke="none" fill="#f4f4f4" fill-opacity="1"><g><text style="font: 20px &quot;Shantell Sans&quot;, cursive; white-space: pre;" font-size="20px" font-family="'Shantell Sans', cursive"><tspan x="17.17" y="35.6" dominant-baseline="ideographic">CSS</tspan></text></g></g></g><g id="g-root-tx_html_mccirzwsmej3-fill" data-item-order="0" transform="translate(441.0943603515625, 387.0367736816406)"><g id="tx_html_mccirzwsmej3-fill-merged" stroke="none" fill="#f4f4f4" fill-opacity="1"><g><text style="font: 20px &quot;Shantell Sans&quot;, cursive; white-space: pre;" font-size="20px" font-family="'Shantell Sans', cursive"><tspan x="12" y="35.6" dominant-baseline="ideographic">HTML</tspan></text></g></g></g><g id="g-root-ic_1_znt15bwskzk6-fill" data-item-order="0" transform="translate(272.59515380859375, 447.2287902832031)"></g><g id="g-root-tx_webdevel_93dwr3wsmbyi-fill" data-item-order="0" transform="translate(182.59515380859375, 56.200836181640625)"><g id="tx_webdevel_93dwr3wsmbyi-fill-merged" stroke="none" fill="#f4f4f4" fill-opacity="1"><g><text style="font: bold 25px &quot;Shantell Sans&quot;, cursive; white-space: pre;" font-weight="bold" font-size="25px" font-family="'Shantell Sans', cursive"><tspan x="15.86" y="43.93" dominant-baseline="ideographic">Web Developer</tspan></text></g></g></g><g id="g-root-ic_html_1lw5hxrwskykv-fill" data-item-order="0" transform="translate(392.97918701171875, 387.0367736816406)"></g><g id="g-root-sy_-1_cu_qvwvf3wsjk7e-stroke" data-item-order="-126416" transform="translate(129.09921264648438, 146.23049926757812)"><g id="sy_-1_cu_qvwvf3wsjk7e-stroke" fill="none" stroke-linecap="round" stroke-linejoin="round" stroke-miterlimit="4" stroke="#f4f4f4" stroke-width="2" stroke-dasharray="5.0, 7.0" stroke-opacity="1"><g><path d="M 141.500412 312.540161C 118.969749 289.915192 102.987984 233.059723 102.987984 166.499191C 102.987984 80.067108 129.936829 9.999996 163.179977 9.999996C 196.423096 9.999996 223.371979 80.067108 223.371979 166.499191C 223.371979 233.058838 207.390701 289.913605 184.860519 312.539154M 80.011467 45.149204C 69.99482 75.53643 80.334305 133.184525 108.947182 192.611084C 146.442886 270.486603 201.120056 321.926208 231.072205 307.504761C 261.024231 293.083374 254.909027 218.261993 217.41333 140.386505C 189.049179 81.476494 150.853119 37.694027 120.965584 26.105562M 290.769165 239.838028C 286.660858 208.113541 252.32132 160.610992 200.71582 119.444389C 133.148483 65.544769 61.568974 42.917385 40.83836 68.904793C 20.107622 94.892273 58.076237 159.653564 125.643562 213.553192C 177.013718 254.53212 230.703156 277.434662 262.602203 274.639648M 15.481324 154.299301C 31.98748 181.545334 84.239555 210.204834 149.77269 225.177795C 234.033463 244.429703 308.342865 233.764572 315.747498 201.356506C 323.152008 168.948532 260.847778 127.069939 176.587006 107.81813C 113.330147 93.365234 55.681755 95.773315 27.739128 111.583855M 311.647949 153.07518C 296.027832 180.697784 243.142532 210.008163 176.556763 225.184998C 92.285851 244.392746 17.982037 233.688705 10.594475 201.276825C 3.206805 168.864929 65.533005 127.018951 149.803818 107.81118C 215.873749 92.751945 275.817169 96.079163 302.18869 113.838913M 63.785793 274.59433C 95.693665 277.358154 149.345505 254.4879 200.691605 213.572083C 268.287109 159.707886 306.289642 94.966454 285.572632 68.968132C 264.85556 42.969887 193.264099 65.559753 125.668579 119.423973C 73.995758 160.600128 39.616306 208.132553 35.541405 239.854919M 246.386246 45.112862C 256.430878 75.484344 246.068115 133.175369 217.399368 192.638458C 179.862961 270.494202 125.158768 321.905304 95.214256 307.468109C 65.26973 293.031067 71.424156 218.212921 108.960587 140.357071C 137.33078 81.513367 175.507751 37.775951 205.389786 26.156996"></path></g></g></g><g id="g-root-sy_0_cu_Vector_959c0fwsjjer-stroke" data-item-order="-126413" transform="translate(236.442138671875, 254.57598876953125)"><g id="sy_0_cu_Vector_959c0fwsjjer-stroke" fill="none" stroke-linecap="round" stroke-linejoin="round" stroke-miterlimit="4" stroke="#2c2c2c" stroke-width="2" stroke-opacity="1"><g><path d="M 58.153587 10.000002C 31.559053 10.000002 9.99999 31.559065 9.99999 58.153599C 9.99999 84.748131 31.559053 106.307198 58.153587 106.307198C 84.748123 106.307198 106.307182 84.748131 106.307182 58.153599C 106.307182 31.559065 84.748123 10.000002 58.153587 10.000002Z"></path></g></g></g><g id="g-root-sy_7_cu_Vector_1uuwvm7wsjksk-stroke" data-item-order="-126409" transform="translate(194.3072509765625, 140.21121215820312)"><g id="sy_7_cu_Vector_1uuwvm7wsjksk-stroke" fill="none" stroke-linecap="round" stroke-linejoin="round" stroke-miterlimit="4" stroke="#2c2c2c" stroke-width="2" stroke-opacity="1"><g><path d="M 56.315022 43.288197C 51.227688 55.570065 37.147282 61.402374 24.8654 56.315041C 12.583519 51.227722 6.751225 37.147301 11.838558 24.865417C 16.925892 12.583549 31.006296 6.75124 43.288177 11.838574C 55.570061 16.9259 61.402355 31.006313 56.315022 43.288197Z"></path></g></g></g><g id="g-root-sy_6_cu_Vector_1lpwr2nwskwzx-stroke" data-item-order="-126405" transform="translate(110.03839111328125, 242.53759765625)"><g id="sy_6_cu_Vector_1lpwr2nwskwzx-stroke" fill="none" stroke-linecap="round" stroke-linejoin="round" stroke-miterlimit="4" stroke="#2c2c2c" stroke-width="2" stroke-opacity="1"><g><path d="M 56.315025 24.865402C 61.402359 37.147285 55.570049 51.227692 43.288181 56.315022C 31.0063 61.402355 16.92588 55.570061 11.838563 43.288181C 6.751229 31.006298 12.583538 16.925879 24.865406 11.83856C 37.147285 6.751227 51.227707 12.583536 56.315025 24.865402Z"></path></g></g></g><g id="g-root-sy_5_cu_Vector_1ha38y7wskxs6-stroke" data-item-order="-126401" transform="translate(140.13436889648438, 374.9599914550781)"><g id="sy_5_cu_Vector_1ha38y7wskxs6-stroke" fill="none" stroke-linecap="round" stroke-linejoin="round" stroke-miterlimit="4" stroke="#2c2c2c" stroke-width="2" stroke-opacity="1"><g><path d="M 24.865425 56.315022C 12.583559 51.227688 6.75125 37.147282 11.838583 24.8654C 16.925901 12.583519 31.006321 6.751225 43.288204 11.838558C 55.570068 16.925892 61.402378 31.006296 56.315044 43.288177C 51.227726 55.570061 37.147308 61.402355 24.865425 56.315022Z"></path></g></g></g><g id="g-root-sy_4_cu_Vector_18eg8pbwskykv-stroke" data-item-order="-126397" transform="translate(260.5184326171875, 435.1520080566406)"><g id="sy_4_cu_Vector_18eg8pbwskykv-stroke" fill="none" stroke-linecap="round" stroke-linejoin="round" stroke-miterlimit="4" stroke="#2c2c2c" stroke-width="2" stroke-opacity="1"><g><path d="M 43.288193 56.315029C 31.00631 61.402363 16.925905 55.570068 11.838573 43.288189C 6.751239 31.006306 12.583533 16.925901 24.865416 11.838568C 37.147297 6.751235 51.227703 12.583529 56.315037 24.86541C 61.402367 37.147293 55.570076 51.227699 43.288193 56.315029Z"></path></g></g></g><g id="g-root-sy_3_cu_Vector_13ymqkvwskzd4-stroke" data-item-order="-126393" transform="translate(380.90240478515625, 374.9599914550781)"><g id="sy_3_cu_Vector_13ymqkvwskzd4-stroke" fill="none" stroke-linecap="round" stroke-linejoin="round" stroke-miterlimit="4" stroke="#2c2c2c" stroke-width="2" stroke-opacity="1"><g><path d="M 56.315025 43.288177C 51.227692 55.570061 37.147285 61.402355 24.865404 56.315022C 12.583523 51.227688 6.751229 37.147282 11.838562 24.8654C 16.925896 12.583519 31.0063 6.751225 43.288181 11.838558C 55.570065 16.925892 61.402359 31.006296 56.315025 43.288177Z"></path></g></g></g><g id="g-root-sy_2_cu_Vector_zjfpjjwskwzl-stroke" data-item-order="-126389" transform="translate(417.01763916015625, 242.53759765625)"><g id="sy_2_cu_Vector_zjfpjjwskwzl-stroke" fill="none" stroke-linecap="round" stroke-linejoin="round" stroke-miterlimit="4" stroke="#2c2c2c" stroke-width="2" stroke-opacity="1"><g><path d="M 56.315018 24.865402C 61.402351 37.147285 55.570026 51.227692 43.288177 56.315022C 31.006294 61.402355 16.92589 55.570061 11.838556 43.288181C 6.751223 31.006298 12.583516 16.925879 24.865398 11.83856C 37.147282 6.751227 51.227684 12.583536 56.315018 24.865402Z"></path></g></g></g><g id="g-root-sy_1_cu_Vector_qnspanwskxsa-stroke" data-item-order="-126385" transform="translate(326.7296142578125, 140.21121215820312)"><g id="sy_1_cu_Vector_qnspanwskxsa-stroke" fill="none" stroke-linecap="round" stroke-linejoin="round" stroke-miterlimit="4" stroke="#2c2c2c" stroke-width="2" stroke-opacity="1"><g><path d="M 24.865398 56.315041C 12.583517 51.227722 6.751223 37.147301 11.838556 24.865417C 16.92589 12.583549 31.006294 6.75124 43.288177 11.838574C 55.570057 16.9259 61.402351 31.006313 56.315018 43.288197C 51.227684 55.570065 37.147282 61.402374 24.865398 56.315041Z"></path></g></g></g><g id="g-root-tx_c_18kozkfwsmebl-stroke" data-item-order="0" transform="translate(386.92156982421875, 152.32638549804688)"></g><g id="g-root-tx_reactjs_141r40fwsmdxg-stroke" data-item-order="0" transform="translate(14, 254.61441040039062)"></g><g id="g-root-ic_nati_de7m6nwskydg-stroke" data-item-order="0" transform="translate(122.11520385742188, 254.61441040039062)"><g id="ic_nati_de7m6nwskydg-stroke" fill="none" stroke-linecap="round" stroke-linejoin="round" stroke-miterlimit="4" stroke="#fb6762" stroke-width="2" stroke-opacity="1"><g><path d="M 10.5 22C 10.5 24.485281 15.648726 26.5 22 26.5C 28.351275 26.5 33.5 24.485281 33.5 22C 33.5 19.514719 28.351275 17.5 22 17.5C 15.648726 17.5 10.5 19.514719 10.5 22M 16.250304 31.958988C 18.402621 33.201628 22.721782 29.750061 25.897419 24.249696C 29.073055 18.749331 29.90262 13.283044 27.750305 12.040404C 25.597988 10.797763 21.278828 14.249331 18.10319 19.749696C 14.927553 25.25006 14.097988 30.716347 16.250305 31.958988M 18.10319 24.250304C 21.278828 29.750669 25.597988 33.202236 27.750305 31.959597C 29.90262 30.716955 29.073055 25.250669 25.897419 19.750304C 22.721782 14.249939 18.402621 10.798372 16.250305 12.041013C 14.097988 13.283653 14.927553 18.74994 18.10319 24.250304M 20.5 22C 20.5 22.828427 21.171573 23.5 22 23.5C 22.828427 23.5 23.5 22.828427 23.5 22C 23.5 21.171573 22.828427 20.5 22 20.5C 21.171573 20.5 20.5 21.171573 20.5 22"></path></g></g></g><g id="g-root-ic_c_18eg8pbwsmcqp-stroke" data-item-order="0" transform="translate(338.806396484375, 152.28799438476562)"><g id="ic_c_18eg8pbwsmcqp-stroke" fill="none" stroke-linecap="round" stroke-linejoin="round" stroke-miterlimit="4" stroke="#1ac3fb" stroke-width="2" stroke-opacity="1"><g><path d="M 26 21L 26 23M 27 22L 24.99 22M 29.43 21L 29.43 23M 30.44 22L 28.43 22M 24.76 24.15C 23.841684 25.329629 22.275518 25.795778 20.861607 25.310308C 19.447695 24.824839 18.498208 23.494934 18.498208 22.000001C 18.498208 20.505067 19.447695 19.175162 20.861607 18.689693C 22.275518 18.204223 23.841684 18.670373 24.760001 19.85L 27.82 18.1C 26.103517 15.541596 22.916113 14.406226 19.968754 15.303344C 17.021394 16.200462 15.007084 18.919133 15.007084 22.000001C 15.007084 25.080869 17.021394 27.799539 19.968754 28.696657C 22.916113 29.593775 26.103517 28.458405 27.820001 25.900001ZM 32.25 27.75L 32.25 16.25L 22 10.5L 11.75 16.25L 11.75 27.75L 22 33.5L 32.25 27.75Z"></path></g></g></g><g id="g-root-ic_1_1hi7f2nwskydc-stroke" data-item-order="0" transform="translate(429.0943603515625, 254.61441040039062)"><g id="ic_1_1hi7f2nwskydc-stroke" fill="none" stroke-linecap="round" stroke-linejoin="round" stroke-miterlimit="4" stroke="#43dd93" stroke-width="2" stroke-opacity="1"><g><path d="M 29.5 22.5L 29.5 16.478C 29.501657 13.176927 26.826073 10.5 23.525 10.5L 11.5 10.5C 10.947715 10.5 10.5 10.947715 10.5 11.5L 10.5 32.5C 10.5 33.052285 10.947715 33.5 11.5 33.5L 14.5 33.5M 24.5 10.584L 24.5 14.5C 24.5 15.052285 24.947715 15.5 25.5 15.5L 29.42 15.5M 25.5 27.504L 25.5 31.504M 27.5 29.504L 23.5 29.504M 31.5 27.504L 31.5 31.504M 33.5 29.504L 29.5 29.504M 21.5 33.5C 19.290861 33.5 17.5 31.709139 17.5 29.5C 17.5 27.290861 19.290861 25.5 21.5 25.5"></path></g></g></g><g id="g-root-tx_c_1qbz027wsmbyg-stroke" data-item-order="0" transform="translate(477.20953369140625, 254.61441040039062)"></g><g id="g-root-ic_type_1q6z7dbwsmcjm-stroke" data-item-order="0" transform="translate(260.59515380859375, 278.7295837402344)"><g id="ic_type_1q6z7dbwsmcjm-stroke" fill="none" stroke-linecap="round" stroke-linejoin="round" stroke-miterlimit="4" stroke="#b7b7b7" stroke-width="2" stroke-opacity="1"><g><path d="M 13 19L 55 19C 55 19 57 19 57 21L 57 47C 57 47 57 49 55 49L 13 49C 13 49 11 49 11 47L 11 21C 11 21 11 19 13 19M 18 30L 18 27L 30 27L 30 30M 24 41L 24 27M 34.903999 41L 44 41"></path></g></g></g><g id="g-root-ic_1_m7z767wskykj-stroke" data-item-order="0" transform="translate(206.38397216796875, 152.28799438476562)"><g id="ic_1_m7z767wskykj-stroke" fill="none" stroke-linecap="round" stroke-linejoin="round" stroke-miterlimit="4" stroke="#f366bb" stroke-width="2" stroke-opacity="1"><g><path d="M 29.5 22.5L 29.5 16.478C 29.501657 13.176927 26.826073 10.5 23.525 10.5L 11.5 10.5C 10.947715 10.5 10.5 10.947715 10.5 11.5L 10.5 32.5C 10.5 33.052285 10.947715 33.5 11.5 33.5L 20.5 33.5M 24.5 10.584L 24.5 14.5C 24.5 15.052285 24.947715 15.5 25.5 15.5L 29.42 15.5M 27.5 25.5L 27.5 31.5C 27.5 32.604569 26.604569 33.5 25.5 33.5C 24.395431 33.5 23.5 32.604569 23.5 31.5M 33.5 25.5L 31.354 25.5C 30.494394 25.500311 29.747739 26.091458 29.550258 26.928073C 29.352777 27.764688 29.756269 28.627325 30.525001 29.012001L 32.475 29.987C 33.244905 30.371102 33.649382 31.234415 33.451772 32.071814C 33.254163 32.909213 32.506399 33.500619 31.646001 33.500001L 29.5 33.5"></path></g></g></g><g id="g-root-tx_nodejs_1lt14i7wsmbkb-stroke" data-item-order="0" transform="translate(98.268798828125, 152.32638549804688)"></g><g id="g-root-tx_javascri_hva2hbwsmd59-stroke" data-item-order="0" transform="translate(20.09600830078125, 387.0367736816406)"></g><g id="g-root-ic_js_zmk2z3wskxe5-stroke" data-item-order="0" transform="translate(152.211181640625, 387.0367736816406)"><g id="ic_js_zmk2z3wskxe5-stroke" fill="none" stroke-linecap="round" stroke-linejoin="round" stroke-miterlimit="4" stroke="#f79438" stroke-width="2" stroke-opacity="1"><g><path d="M 11.563 15.004L 32.563 15.004C 32.563 15.004 33.563 15.004 33.563 16.004L 33.563 28.004C 33.563 28.004 33.563 29.004 32.563 29.004L 11.563 29.004C 11.563 29.004 10.563 29.004 10.563 28.004L 10.563 16.004C 10.563 16.004 10.563 15.004 11.563 15.004M 20.562 19L 20.562 23.5C 20.562 24.328428 19.890427 25 19.062 25C 18.233573 25 17.562 24.328428 17.562 23.5M 25.562 19L 23.862 19C 23.286302 18.996693 22.776993 19.372429 22.610252 19.923461C 22.44351 20.474493 22.659053 21.069567 23.14 21.386L 24.979 22.613C 25.460435 22.928795 25.676794 23.523653 25.510734 24.074953C 25.344675 24.626252 24.83576 25.002647 24.26 25L 22.56 25"></path></g></g></g><g id="g-root-tx_css_1cyn2fjwsmej2-stroke" data-item-order="0" transform="translate(260.59515380859375, 495.3440246582031)"></g><g id="g-root-tx_html_mccirzwsmej3-stroke" data-item-order="0" transform="translate(441.0943603515625, 387.0367736816406)"></g><g id="g-root-ic_1_znt15bwskzk6-stroke" data-item-order="0" transform="translate(272.59515380859375, 447.2287902832031)"><g id="ic_1_znt15bwskzk6-stroke" fill="none" stroke-linecap="round" stroke-linejoin="round" stroke-miterlimit="4" stroke="#ffe711" stroke-width="2" stroke-opacity="1"><g><path d="M 29.5 22.5L 29.5 16.478C 29.501657 13.176927 26.826073 10.5 23.525 10.5L 11.5 10.5C 10.947715 10.5 10.5 10.947715 10.5 11.5L 10.5 32.5C 10.5 33.052285 10.947715 33.5 11.5 33.5L 15.5 33.5M 24.5 10.584L 24.5 14.5C 24.5 15.052285 24.947715 15.5 25.5 15.5L 29.42 15.5M 21.5 33.5C 19.290861 33.5 17.5 31.709139 17.5 29.5C 17.5 27.290861 19.290861 25.5 21.5 25.5M 33.5 25.5L 31.354 25.5C 30.494394 25.500311 29.747739 26.091458 29.550258 26.928073C 29.352777 27.764688 29.756269 28.627325 30.525001 29.012001L 32.475 29.987C 33.244905 30.371102 33.649382 31.234415 33.451772 32.071814C 33.254163 32.909213 32.506399 33.500619 31.646001 33.500001L 29.5 33.5M 27.5 25.5L 25.354 25.5C 24.494394 25.500311 23.747739 26.091458 23.550258 26.928073C 23.352777 27.764688 23.756269 28.627325 24.525 29.012001L 26.475 29.987C 27.244905 30.371102 27.649382 31.234415 27.451772 32.071814C 27.254162 32.909213 26.506399 33.500619 25.646001 33.500001L 23.5 33.5"></path></g></g></g><g id="g-root-tx_webdevel_93dwr3wsmbyi-stroke" data-item-order="0" transform="translate(182.59515380859375, 56.200836181640625)"></g><g id="g-root-ic_html_1lw5hxrwskykv-stroke" data-item-order="0" transform="translate(392.97918701171875, 387.0367736816406)"><g id="ic_html_1lw5hxrwskykv-stroke" fill="none" stroke-linecap="round" stroke-linejoin="round" stroke-miterlimit="4" stroke="#a6da37" stroke-width="2" stroke-opacity="1"><g><path d="M 29.5 19.5L 29.5 16.478C 29.501657 13.176927 26.826073 10.5 23.525 10.5L 11.5 10.5C 10.947715 10.5 10.5 10.947715 10.5 11.5L 10.5 32.5C 10.5 33.052285 10.947715 33.5 11.5 33.5L 28.5 33.5C 29.052285 33.5 29.5 33.052285 29.5 32.5L 29.5 31.5M 24.5 10.584L 24.5 14.5C 24.5 15.052285 24.947715 15.5 25.5 15.5L 29.42 15.5M 17.5 22.504L 17.5 28.504M 14.5 28.504L 14.5 22.504M 14.5 25.504L 17.5 25.504M 19.5 22.504L 23.5 22.504M 21.5 22.504L 21.5 28.504M 25.5 28.504L 25.5 22.504L 27 25.504L 28.5 22.504L 28.5 28.504M 30.5 22.5L 30.5 27.5C 30.5 28.052285 30.947715 28.5 31.5 28.5L 33.5 28.5"></path></g></g></g></g></g><path id="wme87j3vyul1f" d="M65.283 12.757a.35.35 0 0 0 .584.157l5.203-5.141-6.183 3.523.396 1.461zm-2.216-11.7a.35.35 0 0 0-.522.305v3.111l3.276-1.868-2.754-1.548zm3.728 2.105l-4.25 2.421v2.445l6.391-3.644-2.141-1.222zm4.708 3.303a.35.35 0 0 0 0-.609l-1.592-.9-7.365 4.199v1.782a.35.35 0 0 0 .523.305l8.435-4.777z M44.542 2.513c0-.433.355-.783.792-.783s.792.35.792.783-.355.783-.792.783-.792-.35-.792-.783zm59.171 0c0-.433.355-.783.792-.783s.792.35.792.783-.355.783-.792.783-.792-.35-.792-.783zm-85.951 7.636h-1.27v-.487c-.276.201-.864.609-1.881.609-1.202 0-2.274-.794-2.137-2.078.118-1.106 1.153-1.584 1.848-1.727l2.17-.345c0-.539-.29-.956-1.064-1.006s-1.21.305-1.571 1.017l-1.124-.605c1.218-2.631 5.029-1.764 5.029.414v4.207zm-1.27-2.86c.006.396-.062 1.112-.819 1.59-.587.37-1.841.299-1.903-.395-.049-.555.461-.791.906-.898l1.816-.297zm72.662 2.86h-1.27v-.487c-.276.201-.864.609-1.881.609-1.202 0-2.274-.794-2.137-2.078.118-1.106 1.153-1.584 1.848-1.727l2.17-.345c0-.539-.29-.956-1.064-1.006s-1.21.305-1.571 1.017l-1.124-.605c1.218-2.631 5.029-1.764 5.029.414v4.207zm-1.27-2.86c.006.396-.062 1.112-.82 1.59-.587.37-1.841.299-1.903-.395-.049-.555.461-.791.906-.898l1.816-.297zM99.096 10.149H97.85v-8.45h1.246v4.895l2.68-2.559h1.738l-2.633 2.535 2.715 3.578h-1.556l-2.077-2.707-.867.844v1.863zm6.053-6.114h-1.255v6.113h1.255V4.035zm-59.2 0h-1.255v6.113h1.255V4.035zm5.584 6.113V1.697h1.255v2.695c.361-.346 1-.485 1.47-.485 1.452 0 2.477 1.082 2.457 2.448v3.792h-1.27v-3.68c0-.408-.214-1.339-1.315-1.339-.968 0-1.342.756-1.342 1.339v3.681h-1.255zm-4.76-4.894V4.039h.621a.45.45 0 0 0 .45-.45v-.855h1.251v1.305h1.309v1.215h-1.309v3.109c0 .293.105.664.648.664.365 0 .531-.035.736-.07v1.137s-.361.113-.857.113c-1.398 0-1.777-1.051-1.777-1.788V5.254h-1.071zM36.528 4.039h-1.394l2.191 6.106h1.125l1.234-3.918 1.238 3.918h1.129l2.188-6.106h-1.383l-1.359 3.93-1.256-3.93h-1.124l-1.242 3.957-1.348-3.957zM26.212 7.141c-.02 1.566 1.187 3.129 3.223 3.129 1.566 0 2.383-.918 2.734-1.719L31.172 8c-.315.399-.801 1.094-1.738 1.094-1.145 0-1.825-.781-1.891-1.52h4.625c.074-.284.148-.995-.03-1.559-.336-1.064-1.221-2.102-2.839-2.102s-3.088 1.152-3.088 3.227zm1.363-.75h3.348c-.055-.43-.566-1.301-1.623-1.301a1.79 1.79 0 0 0-1.725 1.301zm-8.758.75c.038 1.758 1.277 3.133 3.145 3.133 1.074 0 1.723-.477 1.961-.672v.547h1.242V1.703h-1.258v2.888c-.414-.36-1.062-.68-1.93-.68-1.91 0-3.198 1.473-3.16 3.23zm1.309-.08c0 1.119.723 1.978 1.836 1.978a1.88 1.88 0 0 0 1.94-1.904c0-1.371-1.011-1.99-1.972-1.99s-1.805.798-1.805 1.916zm76.683-.028C96.771 5.275 95.532 3.9 93.664 3.9c-1.074 0-1.723.477-1.961.672v-.547h-1.242v8.22h1.258V9.583c.414.36 1.063.68 1.93.68 1.91 0 3.198-1.473 3.16-3.23zm-1.309.08c0-1.119-.723-1.978-1.836-1.978a1.88 1.88 0 0 0-1.94 1.904c0 1.371 1.011 1.99 1.972 1.99S95.5 8.231 95.5 7.113zM106.441 10.173V4.036h1.254v.382c.361-.346 1-.485 1.47-.485 1.452 0 2.477 1.082 2.457 2.448v3.792h-1.27V6.492c0-.408-.214-1.339-1.315-1.339-.969 0-1.342.756-1.342 1.339v3.681h-1.254zm-30.383-.021V1.824h1.084l4.215 5.777V1.824h1.32v8.328h-1.094l-4.207-5.796v5.796h-1.319zM5.24 10.149H4V2.377h1.014l2.664 3.597 2.654-3.592h1.03v7.766h-1.256V4.762L7.678 8.068 5.24 4.742v5.407z" transform="translate(423.20953369140625, 543.343994140625)" fill="#ababab88" stroke="none"></path></svg>