<?xml version="1.0" encoding="utf-8" standalone="yes"?>
<!DOCTYPE svg PUBLIC "-//W3C//DTD SVG 1.1//EN" "http://www.w3.org/Graphics/SVG/1.1/DTD/svg11.dtd">
<svg style="fill:none;stroke:none;fill-rule:evenodd;clip-rule:evenodd;stroke-linecap:round;stroke-linejoin:round;stroke-miterlimit:1.5;" version="1.1" xmlns="http://www.w3.org/2000/svg" xmlns:xlink="http://www.w3.org/1999/xlink" width="914" height="828" viewBox="0 0 914 828"><style class="text-font-style fontImports" data-font-family="Shantell Sans">@import url(https://fonts.googleapis.com/css2?family=Shantell+Sans:wght@300..800&amp;amp;display=block);</style><g id="items" style="isolation: isolate"><g id="blend" style="mix-blend-mode: normal"><g id="g-root-sy_4_cu_1lqisfzw8sr29-fill" data-item-order="-535956" transform="translate(14, 158)"></g><g id="g-root-sy_4_cu_1_zjf9trw8stfu-fill" data-item-order="-535955" transform="translate(314, 152)"><g id="sy_4_cu_1_zjf9trw8stfu-fill-merged" stroke="none" fill="#60703f" fill-opacity="1"><g><path d="M14.247 281.744C8.584 287.407 8.584 296.588 14.247 302.251L86.146 374.148C80.585 368.477 80.618 359.372 86.247 353.743L281.743 158.247C287.406 152.584 296.587 152.584 302.25 158.247L497.741 353.744C503.403 359.406 503.403 368.587 497.741 374.25L569.741 302.251C575.403 296.588 575.404 287.407 569.741 281.745L302.251 14.247C296.588 8.584 287.407 8.584 281.745 14.247L14.247 281.744"></path></g></g></g><g id="g-root-sy_3_cu_v488sfw8sr2b-fill" data-item-order="-535950" transform="translate(14, 302)"></g><g id="g-root-sy_3_cu_1_hsrqf3w8ssn8-fill" data-item-order="-535949" transform="translate(386, 296)"><g id="sy_3_cu_1_hsrqf3w8ssn8-fill-merged" stroke="none" fill="#41735b" fill-opacity="1"><g><path d="M14.247 209.743C8.584 215.406 8.584 224.587 14.247 230.25L86.147 302.148C80.585 296.477 80.618 287.372 86.247 281.742L209.742 158.247C215.405 152.584 224.586 152.584 230.249 158.247L353.741 281.743C359.404 287.405 359.403 296.586 353.741 302.249L425.741 230.25C431.403 224.587 431.403 215.406 425.741 209.744L230.25 14.247C224.587 8.584 215.406 8.584 209.743 14.247L14.247 209.743"></path></g></g></g><g id="g-root-sy_2_cu_4hxp4vw8sr2d-fill" data-item-order="-535944" transform="translate(14, 446)"></g><g id="g-root-sy_2_cu_1_1q7l8qnw8ssg6-fill" data-item-order="-535943" transform="translate(458.0000305175781, 440)"><g id="sy_2_cu_1_1q7l8qnw8ssg6-fill-merged" stroke="none" fill="#346778" fill-opacity="1"><g><path d="M14.247 137.742C8.584 143.405 8.584 152.586 14.247 158.249L86.236 230.236C80.584 224.572 80.588 215.399 86.247 209.741L137.741 158.247C143.403 152.584 152.584 152.584 158.247 158.247L209.739 209.741C215.401 215.403 215.401 224.584 209.739 230.247C100.076 339.91 237.619 202.37 281.741 158.249C287.403 152.586 287.403 143.405 281.741 137.743L158.249 14.247C152.586 8.584 143.405 8.584 137.742 14.247L14.247 137.742"></path></g></g></g><g id="g-root-sy_1_cu_1hby8hrw8st8v-fill" data-item-order="-535938" transform="translate(14, 590)"></g><g id="g-root-sy_1_cu_1_18gxpbzw8srnk-fill" data-item-order="-535937" transform="translate(530, 584)"><g id="sy_1_cu_1_18gxpbzw8srnk-fill-merged" stroke="none" fill="#426397" fill-opacity="1"><g><path d="M14.247 86.247C8.584 80.584 8.584 71.403 14.247 65.741L65.741 14.247C71.403 8.584 80.584 8.584 86.247 14.247L137.739 65.741C143.402 71.403 143.402 80.584 137.739 86.247L86.247 137.739C80.584 143.401 71.403 143.402 65.741 137.739L14.247 86.247"></path></g></g></g><g id="g-root-tx_professi_zlap33w8ssg9-fill" data-item-order="0" transform="translate(163.49996948242188, 38)"><g id="tx_professi_zlap33w8ssg9-fill-merged" stroke="none" fill="#f4f4f4" fill-opacity="1"><g><text style="font: bold 25px &quot;Shantell Sans&quot;, cursive; white-space: pre;" font-weight="bold" font-size="25px" font-family="'Shantell Sans', cursive"><tspan x="13.77" y="43.93" dominant-baseline="ideographic">Professional Development and Exploration</tspan></text></g></g></g><g id="g-root-tx_sideproj_58kfzw8ss97-fill" data-item-order="0" transform="translate(38, 182)"><g id="tx_sideproj_58kfzw8ss97-fill-merged" stroke="none" fill="#a6da37" fill-opacity="1"><g><text style="font: bold 20px &quot;Shantell Sans&quot;, cursive; white-space: pre;" font-weight="bold" font-size="20px" font-family="'Shantell Sans', cursive"><tspan x="12" y="34.53" dominant-baseline="ideographic">Side Projects</tspan></text></g></g></g><g id="g-root-tx_creative_142d5drw8stu2-fill" data-item-order="0" transform="translate(38, 218)"><g id="tx_creative_142d5drw8stu2-fill-merged" stroke="none" fill="#f4f4f4" fill-opacity="1"><g><text style="font: 20px &quot;Shantell Sans&quot;, cursive; white-space: pre;" font-size="20px" font-family="'Shantell Sans', cursive"><tspan x="12" y="34.53" dominant-baseline="ideographic">Creative endeavors and </tspan><tspan x="12" y="58.53" dominant-baseline="ideographic">collaborations</tspan></text></g></g></g><g id="g-root-ic_penc_58nlrw8om4l-fill" data-item-order="0" transform="translate(572, 206)"></g><g id="g-root-tx_designtr_dhy0zjw8ssud-fill" data-item-order="0" transform="translate(38, 326)"><g id="tx_designtr_dhy0zjw8ssud-fill-merged" stroke="none" fill="#43dd93" fill-opacity="1"><g><text style="font: bold 20px &quot;Shantell Sans&quot;, cursive; white-space: pre;" font-weight="bold" font-size="20px" font-family="'Shantell Sans', cursive"><tspan x="12" y="34.53" dominant-baseline="ideographic">Design Trends</tspan></text></g></g></g><g id="g-root-tx_stayingu_18k22rjw8ss24-fill" data-item-order="0" transform="translate(38, 362)"><g id="tx_stayingu_18k22rjw8ss24-fill-merged" stroke="none" fill="#f4f4f4" fill-opacity="1"><g><text style="font: 20px &quot;Shantell Sans&quot;, cursive; white-space: pre;" font-size="20px" font-family="'Shantell Sans', cursive"><tspan x="12" y="34.53" dominant-baseline="ideographic">Staying updated with </tspan><tspan x="12" y="58.53" dominant-baseline="ideographic">industry aesthetics</tspan></text></g></g></g><g id="g-root-ic_bull_qtejcvw8zuo4-fill" data-item-order="0" transform="translate(572, 350.0078125)"></g><g id="g-root-tx_newtools_vagznjw8ssnb-fill" data-item-order="0" transform="translate(38, 470)"><g id="tx_newtools_vagznjw8ssnb-fill-merged" stroke="none" fill="#1ac3fb" fill-opacity="1"><g><text style="font: bold 20px &quot;Shantell Sans&quot;, cursive; white-space: pre;" font-weight="bold" font-size="20px" font-family="'Shantell Sans', cursive"><tspan x="12" y="34.53" dominant-baseline="ideographic">New Tools</tspan></text></g></g></g><g id="g-root-tx_explorin_1d14j27w8stfy-fill" data-item-order="0" transform="translate(38, 506)"><g id="tx_explorin_1d14j27w8stfy-fill-merged" stroke="none" fill="#f4f4f4" fill-opacity="1"><g><text style="font: 20px &quot;Shantell Sans&quot;, cursive; white-space: pre;" font-size="20px" font-family="'Shantell Sans', cursive"><tspan x="12" y="34.53" dominant-baseline="ideographic">Exploring and integrating </tspan><tspan x="12" y="58.53" dominant-baseline="ideographic">new technologies</tspan></text></g></g></g><g id="g-root-ic_1_13zv91bw8ygar-fill" data-item-order="0" transform="translate(572, 494.0078125)"></g><g id="g-root-tx_coding_1lymykfw8srnl-fill" data-item-order="0" transform="translate(38, 614)"><g id="tx_coding_1lymykfw8srnl-fill-merged" stroke="none" fill="#4f91fc" fill-opacity="1"><g><text style="font: bold 20px &quot;Shantell Sans&quot;, cursive; white-space: pre;" font-weight="bold" font-size="20px" font-family="'Shantell Sans', cursive"><tspan x="12" y="34.53" dominant-baseline="ideographic">Coding</tspan></text></g></g></g><g id="g-root-ic_1_vccewvw8srnm-fill" data-item-order="0" transform="translate(572, 626)"></g><g id="g-root-tx_coreskil_4o6fzzw8ssnc-fill" data-item-order="0" transform="translate(38, 650)"><g id="tx_coreskil_4o6fzzw8ssnc-fill-merged" stroke="none" fill="#f4f4f4" fill-opacity="1"><g><text style="font: 20px &quot;Shantell Sans&quot;, cursive; white-space: pre;" font-size="20px" font-family="'Shantell Sans', cursive"><tspan x="12" y="34.53" dominant-baseline="ideographic">Core skill and passion</tspan></text></g></g></g><g id="g-root-sy_4_cu_1lqisfzw8sr29-stroke" data-item-order="-535956" transform="translate(14, 158)"><g id="sy_4_cu_1lqisfzw8sr29-stroke" fill="none" stroke-linecap="round" stroke-linejoin="round" stroke-miterlimit="4" stroke="#91bb39" stroke-width="2" stroke-opacity="1"><g><path d="M 579.9915 10L 24.5 10C 16.4919 10 10 16.4919 10 24.5L 10 115.5C 10 123.5081 16.4919 130 24.5 130L 459.9915 130"></path></g></g></g><g id="g-root-sy_4_cu_1_zjf9trw8stfu-stroke" data-item-order="-535955" transform="translate(314, 152)"><g id="sy_4_cu_1_zjf9trw8stfu-stroke" fill="none" stroke-linecap="round" stroke-linejoin="round" stroke-miterlimit="4" stroke="#2c2c2c" stroke-width="2" stroke-opacity="1"><g><path d="M 14.247 281.744485C 8.5843 287.407185 8.5843 296.588085 14.2471 302.250685L 86.1461 374.147785C 80.5846 368.477485 80.6182 359.372285 86.2469 353.743485L 281.7435 158.246885C 287.4062 152.584285 296.5872 152.584385 302.2498 158.247085L 497.741 353.743685C 503.4034 359.406285 503.4034 368.587085 497.7409 374.249585L 569.7409 302.250585C 575.4034 296.587985 575.4035 287.407285 569.741 281.744585L 302.2507 14.247085C 296.5882 8.584385 287.4072 8.584285 281.7445 14.246885L 14.247 281.744485Z"></path></g></g></g><g id="g-root-sy_3_cu_v488sfw8sr2b-stroke" data-item-order="-535950" transform="translate(14, 302)"><g id="sy_3_cu_v488sfw8sr2b-stroke" fill="none" stroke-linecap="round" stroke-linejoin="round" stroke-miterlimit="4" stroke="#3bc482" stroke-width="2" stroke-opacity="1"><g><path d="M 316 130L 24.5 130C 16.4919 130 10 123.5081 10 115.5L 10 24.5C 10 16.4919 16.4919 10 24.5 10L 436 10"></path></g></g></g><g id="g-root-sy_3_cu_1_hsrqf3w8ssn8-stroke" data-item-order="-535949" transform="translate(386, 296)"><g id="sy_3_cu_1_hsrqf3w8ssn8-stroke" fill="none" stroke-linecap="round" stroke-linejoin="round" stroke-miterlimit="4" stroke="#2c2c2c" stroke-width="2" stroke-opacity="1"><g><path d="M 14.2469 209.743485C 8.5843 215.406185 8.5844 224.587185 14.2471 230.249785L 86.1468 302.147585C 80.5845 296.477285 80.6179 287.371585 86.247 281.742485L 209.7425 158.246885C 215.4052 152.584285 224.5862 152.584385 230.2488 158.247085L 353.741 281.742685C 359.4035 287.405285 359.4034 296.586085 353.7409 302.248585L 425.7409 230.249585C 431.4034 224.587085 431.4034 215.406285 425.741 209.743585L 230.2497 14.247085C 224.5872 8.584385 215.4062 8.584285 209.7435 14.246885L 14.2469 209.743485Z"></path></g></g></g><g id="g-root-sy_2_cu_4hxp4vw8sr2d-stroke" data-item-order="-535944" transform="translate(14, 446)"><g id="sy_2_cu_4hxp4vw8sr2d-stroke" fill="none" stroke-linecap="round" stroke-linejoin="round" stroke-miterlimit="4" stroke="#1fa9d7" stroke-width="2" stroke-opacity="1"><g><path d="M 315.5 10L 24.5 10C 16.4919 10 10 16.4919 10 24.5L 10 115.5C 10 123.5081 16.4919 130 24.5 130L 435.5 130"></path></g></g></g><g id="g-root-sy_2_cu_1_1q7l8qnw8ssg6-stroke" data-item-order="-535943" transform="translate(458.0000305175781, 440)"><g id="sy_2_cu_1_1q7l8qnw8ssg6-stroke" fill="none" stroke-linecap="round" stroke-linejoin="round" stroke-miterlimit="4" stroke="#2c2c2c" stroke-width="2" stroke-opacity="1"><g><path d="M 14.246969 137.742469C 8.584269 143.405169 8.584369 152.586169 14.247069 158.248769L 86.235869 230.235569C 80.584369 224.572069 80.587969 215.399469 86.246969 209.740569L 137.740569 158.246869C 143.403169 152.584269 152.584169 152.584369 158.246769 158.247069L 209.738969 209.740669C 215.401469 215.403369 215.401469 224.584069 209.738869 230.246669C 100.075669 339.909869 237.619269 202.370169 281.740869 158.248569C 287.403369 152.586069 287.403469 143.405269 281.740969 137.742669L 158.248769 14.247069C 152.586169 8.584369 143.405169 8.584269 137.742469 14.246969L 14.246969 137.742469Z"></path></g></g></g><g id="g-root-sy_1_cu_1hby8hrw8st8v-stroke" data-item-order="-535938" transform="translate(14, 590)"><g id="sy_1_cu_1hby8hrw8st8v-stroke" fill="none" stroke-linecap="round" stroke-linejoin="round" stroke-miterlimit="4" stroke="#4e88e6" stroke-width="2" stroke-opacity="1"><g><path d="M 580.0016 130L 24.5 130C 16.4919 130 10 123.5081 10 115.5L 10 24.5C 10 16.4919 16.4919 10 24.5 10L 460 10"></path></g></g></g><g id="g-root-sy_1_cu_1_18gxpbzw8srnk-stroke" data-item-order="-535937" transform="translate(530, 584)"><g id="sy_1_cu_1_18gxpbzw8srnk-stroke" fill="none" stroke-linecap="round" stroke-linejoin="round" stroke-miterlimit="4" stroke="#2c2c2c" stroke-width="2" stroke-opacity="1"><g><path d="M 14.2471 86.2468C 8.5844 80.5842 8.5843 71.4032 14.247 65.7406L 65.7406 14.2469C 71.4032 8.5843 80.5842 8.5844 86.2468 14.2471L 137.739 65.7407C 143.4015 71.4033 143.4015 80.5841 137.7389 86.2467L 86.2467 137.7389C 80.5841 143.4014 71.4033 143.4015 65.7407 137.739L 14.2471 86.2468Z"></path></g></g></g><g id="g-root-tx_professi_zlap33w8ssg9-stroke" data-item-order="0" transform="translate(163.49996948242188, 38)"></g><g id="g-root-tx_sideproj_58kfzw8ss97-stroke" data-item-order="0" transform="translate(38, 182)"></g><g id="g-root-tx_creative_142d5drw8stu2-stroke" data-item-order="0" transform="translate(38, 218)"></g><g id="g-root-ic_penc_58nlrw8om4l-stroke" data-item-order="0" transform="translate(572, 206)"><g id="ic_penc_58nlrw8om4l-stroke" fill="none" stroke-linecap="round" stroke-linejoin="round" stroke-miterlimit="4" stroke="#a6da37" stroke-width="2" stroke-opacity="1"><g><path d="M 10 10M 47.996185 33.19767L 56.39534 35.597427L 53.995583 27.198273L 39.597027 12.799699C 37.997189 11.199856 35.197472 11.199856 33.59763 12.799699C 31.997791 14.399538 31.997791 17.199257 33.59763 18.799097L 47.996185 33.19767ZM 10 10M 41.396847 14.599578L 35.397449 20.598976M 33.497841 56.495331C 31.098082 53.095669 27.098404 50.895893 22.498865 50.895893C 17.899326 50.895893 13.899729 53.095669 11.499971 56.495331M 22.499065 32.69772L 22.499065 26.698404M 11.499971 38.497139L 33.497841 38.497139M 14.299688 40.696918C 14.499668 45.096474 18.099306 48.696114 22.498865 48.696114C 27.098404 48.696114 30.69812 45.096474 30.69812 40.496937L 30.69812 36.897297C 30.69812 32.29776 27.098404 28.698202 22.498865 28.698202C 18.099306 28.698202 14.499668 32.29776 14.299688 36.697319L 14.299688 40.696918Z"></path></g></g></g><g id="g-root-tx_designtr_dhy0zjw8ssud-stroke" data-item-order="0" transform="translate(38, 326)"></g><g id="g-root-tx_stayingu_18k22rjw8ss24-stroke" data-item-order="0" transform="translate(38, 362)"></g><g id="g-root-ic_bull_qtejcvw8zuo4-stroke" data-item-order="0" transform="translate(572, 350.0078125)"><g id="ic_bull_qtejcvw8zuo4-stroke" fill="none" stroke-linecap="round" stroke-linejoin="round" stroke-miterlimit="4" stroke="#43dd93" stroke-width="2" stroke-opacity="1"><g><path d="M 13.999599 21.998795C 13.999599 24.759941 16.237949 26.998293 18.999096 26.998293C 21.760242 26.998293 23.998594 24.759941 23.998594 21.998795C 23.998594 19.23765 21.760242 16.999296 18.999096 16.999296C 16.237949 16.999296 13.999599 19.23765 13.999599 21.998795ZM 29.997992 16.999296L 53.995583 16.999296M 29.997992 20.998896L 43.996586 20.998896M 29.997992 24.998493L 47.996185 24.998493M 29.997992 35.997387C 29.997992 37.654076 31.341003 38.997086 32.997688 38.997086C 34.654377 38.997086 35.997387 37.654076 35.997387 35.997387C 35.997387 34.340702 34.654377 32.997688 32.997688 32.997688C 31.341003 32.997688 29.997992 34.340702 29.997992 35.997387ZM 39.996986 32.997688L 54.99548 32.997688M 39.996986 36.997288L 47.996185 36.997288M 29.997992 47.996185C 29.997992 49.652874 31.341003 50.995884 32.997688 50.995884C 34.654377 50.995884 35.997387 49.652874 35.997387 47.996185C 35.997387 46.339497 34.654377 44.996487 32.997688 44.996487C 31.341003 44.996487 29.997992 46.339497 29.997992 47.996185ZM 39.996986 44.996487L 54.99548 44.996487M 39.996986 48.996082L 47.996185 48.996082M 23.998594 30.99789L 23.998594 32.997688M 23.998594 36.997288L 23.998594 38.997086M 23.998594 42.996685L 23.998594 44.996487M 23.998594 48.996082L 23.998594 50.995884"></path></g></g></g><g id="g-root-tx_newtools_vagznjw8ssnb-stroke" data-item-order="0" transform="translate(38, 470)"></g><g id="g-root-tx_explorin_1d14j27w8stfy-stroke" data-item-order="0" transform="translate(38, 506)"></g><g id="g-root-ic_1_13zv91bw8ygar-stroke" data-item-order="0" transform="translate(572, 494.0078125)"><g id="ic_1_13zv91bw8ygar-stroke" fill="none" stroke-linecap="round" stroke-linejoin="round" stroke-miterlimit="4" stroke="#1ac3fb" stroke-width="2" stroke-opacity="1"><g><path d="M 34.093781 29.61685C 36.184971 29.61685 37.880199 27.921579 37.880199 25.830349C 37.880199 23.73912 36.184971 22.04385 34.093781 22.04385C 32.00259 22.04385 30.307362 23.73912 30.307362 25.830349C 30.307362 27.921579 32.00259 29.61685 34.093781 29.61685ZM 10 10M 28.702841 30.01539L 28.50576 29.017151C 27.520279 25.523241 27.52026 21.779737 28.702841 18.285809C 29.885424 14.791899 31.708019 12.498109 34.073181 11.499849C 36.438343 12.498109 38.295357 14.791899 39.478039 18.285809C 40.660522 21.779737 40.660522 25.523241 39.675018 29.017151L 39.478039 30.01539M 10 10M 34.279961 36.59193L 40.856503 34.39975M 10 10M 34.065582 35.969193L 40.059582 54.129368C 40.65752 55.922989 42.650318 56.919289 44.443939 56.321545C 46.23756 55.723606 47.234062 53.730808 46.63612 51.937187L 37.828205 25.251848M 10 10M 33.866005 36.59193L 27.289484 34.39975M 10 10M 34.080582 35.969193L 28.086584 54.129368C 27.488703 55.922989 25.495823 56.919487 23.702223 56.321545C 21.908623 55.723606 20.912184 53.730808 21.510044 51.937187L 30.407351 24.980755M 21.586416 54.284752L 11.773504 34.200371L 14.563561 35.396248C 18.549341 37.189869 21.937241 40.179169 24.12944 43.965591M 24.544559 42.819706C 24.544559 39.218464 23.24053 35.817406 21.284487 32.616329L 19.545801 30.01539M 54.668915 32.456745C 56.063972 33.253864 56.661911 35.047482 55.864792 36.442543L 46.809902 52.583725M 10 10M 54.469734 39.033085L 51.878994 37.638023M 10 10M 51.480434 44.214764L 48.889694 42.819706M 10 10M 34.093781 11.499849L 34.093781 22.04385M 10 10M 34.065582 29.61685L 34.065582 35.99419"></path></g></g></g><g id="g-root-tx_coding_1lymykfw8srnl-stroke" data-item-order="0" transform="translate(38, 614)"></g><g id="g-root-ic_1_vccewvw8srnm-stroke" data-item-order="0" transform="translate(572, 626)"><g id="ic_1_vccewvw8srnm-stroke" fill="none" stroke-linecap="round" stroke-linejoin="round" stroke-miterlimit="4" stroke="#4f91fc" stroke-width="2" stroke-opacity="1"><g><path d="M 32.997688 44.996487L 38.997086 44.996487C 43.414921 44.996487 46.996284 48.577847 46.996284 52.995682L 10.9999 52.995682M 10.9999 36.997288L 24.998493 36.997288C 29.416328 36.997288 32.997688 40.578651 32.997688 44.996487L 23.998594 44.996487M 10.9999 34.99749L 10.9999 54.99548M 47.996185 13.999599L 55.99538 21.998795L 47.996185 29.997992M 31.997791 13.999599L 23.998594 21.998795L 31.997791 29.997992M 41.996788 12.999699L 37.997189 30.99789"></path></g></g></g><g id="g-root-tx_coreskil_4o6fzzw8ssnc-stroke" data-item-order="0" transform="translate(38, 650)"></g></g></g><path id="w1cu94sfxclki7" d="M65.283 12.757a.35.35 0 0 0 .584.157l5.203-5.141-6.183 3.523.396 1.461zm-2.216-11.7a.35.35 0 0 0-.522.305v3.111l3.276-1.868-2.754-1.548zm3.728 2.105l-4.25 2.421v2.445l6.391-3.644-2.141-1.222zm4.708 3.303a.35.35 0 0 0 0-.609l-1.592-.9-7.365 4.199v1.782a.35.35 0 0 0 .523.305l8.435-4.777z M44.542 2.513c0-.433.355-.783.792-.783s.792.35.792.783-.355.783-.792.783-.792-.35-.792-.783zm59.171 0c0-.433.355-.783.792-.783s.792.35.792.783-.355.783-.792.783-.792-.35-.792-.783zm-85.951 7.636h-1.27v-.487c-.276.201-.864.609-1.881.609-1.202 0-2.274-.794-2.137-2.078.118-1.106 1.153-1.584 1.848-1.727l2.17-.345c0-.539-.29-.956-1.064-1.006s-1.21.305-1.571 1.017l-1.124-.605c1.218-2.631 5.029-1.764 5.029.414v4.207zm-1.27-2.86c.006.396-.062 1.112-.819 1.59-.587.37-1.841.299-1.903-.395-.049-.555.461-.791.906-.898l1.816-.297zm72.662 2.86h-1.27v-.487c-.276.201-.864.609-1.881.609-1.202 0-2.274-.794-2.137-2.078.118-1.106 1.153-1.584 1.848-1.727l2.17-.345c0-.539-.29-.956-1.064-1.006s-1.21.305-1.571 1.017l-1.124-.605c1.218-2.631 5.029-1.764 5.029.414v4.207zm-1.27-2.86c.006.396-.062 1.112-.82 1.59-.587.37-1.841.299-1.903-.395-.049-.555.461-.791.906-.898l1.816-.297zM99.096 10.149H97.85v-8.45h1.246v4.895l2.68-2.559h1.738l-2.633 2.535 2.715 3.578h-1.556l-2.077-2.707-.867.844v1.863zm6.053-6.114h-1.255v6.113h1.255V4.035zm-59.2 0h-1.255v6.113h1.255V4.035zm5.584 6.113V1.697h1.255v2.695c.361-.346 1-.485 1.47-.485 1.452 0 2.477 1.082 2.457 2.448v3.792h-1.27v-3.68c0-.408-.214-1.339-1.315-1.339-.968 0-1.342.756-1.342 1.339v3.681h-1.255zm-4.76-4.894V4.039h.621a.45.45 0 0 0 .45-.45v-.855h1.251v1.305h1.309v1.215h-1.309v3.109c0 .293.105.664.648.664.365 0 .531-.035.736-.07v1.137s-.361.113-.857.113c-1.398 0-1.777-1.051-1.777-1.788V5.254h-1.071zM36.528 4.039h-1.394l2.191 6.106h1.125l1.234-3.918 1.238 3.918h1.129l2.188-6.106h-1.383l-1.359 3.93-1.256-3.93h-1.124l-1.242 3.957-1.348-3.957zM26.212 7.141c-.02 1.566 1.187 3.129 3.223 3.129 1.566 0 2.383-.918 2.734-1.719L31.172 8c-.315.399-.801 1.094-1.738 1.094-1.145 0-1.825-.781-1.891-1.52h4.625c.074-.284.148-.995-.03-1.559-.336-1.064-1.221-2.102-2.839-2.102s-3.088 1.152-3.088 3.227zm1.363-.75h3.348c-.055-.43-.566-1.301-1.623-1.301a1.79 1.79 0 0 0-1.725 1.301zm-8.758.75c.038 1.758 1.277 3.133 3.145 3.133 1.074 0 1.723-.477 1.961-.672v.547h1.242V1.703h-1.258v2.888c-.414-.36-1.062-.68-1.93-.68-1.91 0-3.198 1.473-3.16 3.23zm1.309-.08c0 1.119.723 1.978 1.836 1.978a1.88 1.88 0 0 0 1.94-1.904c0-1.371-1.011-1.99-1.972-1.99s-1.805.798-1.805 1.916zm76.683-.028C96.771 5.275 95.532 3.9 93.664 3.9c-1.074 0-1.723.477-1.961.672v-.547h-1.242v8.22h1.258V9.583c.414.36 1.063.68 1.93.68 1.91 0 3.198-1.473 3.16-3.23zm-1.309.08c0-1.119-.723-1.978-1.836-1.978a1.88 1.88 0 0 0-1.94 1.904c0 1.371 1.011 1.99 1.972 1.99S95.5 8.231 95.5 7.113zM106.441 10.173V4.036h1.254v.382c.361-.346 1-.485 1.47-.485 1.452 0 2.477 1.082 2.457 2.448v3.792h-1.27V6.492c0-.408-.214-1.339-1.315-1.339-.969 0-1.342.756-1.342 1.339v3.681h-1.254zm-30.383-.021V1.824h1.084l4.215 5.777V1.824h1.32v8.328h-1.094l-4.207-5.796v5.796h-1.319zM5.24 10.149H4V2.377h1.014l2.664 3.597 2.654-3.592h1.03v7.766h-1.256V4.762L7.678 8.068 5.24 4.742v5.407z" transform="translate(777.403564453125, 793.909912109375)" fill="#ababab88" stroke="none"></path></svg>